<?xml version="1.0" encoding="utf-8"?>
<!-- Generator: Adobe Illustrator 21.1.0, SVG Export Plug-In . SVG Version: 6.00 Build 0)  -->
<svg version="1.1" id="Layer_1" xmlns="http://www.w3.org/2000/svg" xmlns:xlink="http://www.w3.org/1999/xlink" x="0px" y="0px"
	 viewBox="0 0 1600 200" style="enable-background:new 0 0 1600 200;" xml:space="preserve">
<style type="text/css">
	.st0{fill:#0053D4;}
	.st1{fill:#FFAE2A;}
	.st2{font-family:'zcoolqingkehuangyouti-Regular';}
	.st3{font-size:32.2287px;}
	.st4{fill:#111111;}
	.st5{fill:#393939;}
</style>
<path class="st0" d="M189.1,67.2c-4.6-1.7-9.2-3.2-13.9-4.4c7.7-30.5,4.5-52.6-8.7-60.1c-13.5-7.6-33.6,1.7-54,21.6
	c1.3,1.3,2.7,2.6,4,4c32.2-31.2,46.7-20.9,47.2-20.6c8.7,5,14.1,21.8,6.1,53.8c-10.9-2.5-21.9-4.2-33-5.1
	c-28.2-39.3-55-55.6-71.3-55.6c-12,0-17.1,8.2-18.6,10.8c-7.1,12.5-5.2,32.9,0,52.3C19.4,71.8-0.2,85,0,101
	c0.2,23.3,40.3,34.3,47.7,36.2c-8,32-3.9,53,8.7,60.1c10.9,6.2,29.3,2.3,54-21.6c-1.3-1.3-2.7-2.6-4-4
	c-32.2,31.2-46.8,20.9-47.2,20.6c-8.7-4.9-14.1-21.7-6.1-53.9c4.8,1.1,16.3,3.7,33,5.1c28.1,39.2,54.9,55.5,71.1,55.5
	c12,0,17.1-8.2,18.6-10.8c7-12.5,5.2-32.8,0-52.3C235.3,118.9,236.8,85.2,189.1,67.2L189.1,67.2z M51.9,14.4c1.1-2,4.6-7.9,13.6-7.9
	c14.4,0,38.6,15.5,63.8,49.3c-12.2-0.7-24.5-0.6-36.7,0.4c5.1-7.2,10.6-14,16.5-20.5c-1.3-1.4-2.7-2.7-4-4
	C97.9,39.6,91.3,48,85.3,56.8c-11.1,1.1-22.1,3-33,5.7C52.3,61.9,42.9,30.3,51.9,14.4L51.9,14.4z M170.9,185.6
	c-1.1,2-4.6,7.9-13.6,7.9c-14.3,0-38.6-15.4-63.8-49.3c12.2,0.7,24.5,0.6,36.7-0.4c-5.1,7.2-10.6,14-16.5,20.5c1.3,1.4,2.7,2.7,4,4
	c7.2-7.9,13.8-16.3,19.8-25.1c18.5-1.8,31.4-5.3,33-5.7C179.3,170.5,172.2,183.3,170.9,185.6z M174.5,131.5c-1.4-4.6-3-9.4-4.8-14.2
	c-1.7,0-3.3-0.8-4.2-2.2l0,0c-0.6,0.6-1.3,1.1-2.1,1.4c2.2,5.6,4.1,11.1,5.7,16.5c-9.2,2.3-18.6,4-28.1,5.1
	c1.4-2.1,6.7-10.2,12.6-21.2c-0.8-0.3-1.6-0.7-2.3-1.2c-0.4,0.5-1.4,1.6-4.3,1.6c-2.4,4.4-6.8,12.1-13.2,21.6
	c-14.6,1.3-29.3,1.4-43.9,0.4c-3.1-4.4-8.4-12.1-14.4-22.6c-0.4-0.2-0.8-0.4-1.2-0.6c-0.7,0.6-1.5,1.2-4.9,1.2
	c2.5,4.4,6.8,12,13.2,21.3c-9.5-0.9-18.9-2.4-28.2-4.6c1.5-5.5,3.4-11.1,5.5-16.8c-1.2,0-2.1,0.1-3.3-0.4c-0.9,0.3-1.8,0.4-2.7,0.4
	c-1.9,5.2-3.6,10.4-5,15.4c-62.5-16.6-54.8-48.2-0.6-64c1.4,4.6,3,9.4,4.8,14.2c4.1,0,5,1.3,5.6,2.1c0.3-0.3,0.6-0.6,0.9-0.9
	c-2.3-5.7-4.3-11.4-5.9-16.9c2.7-0.7,12.7-3.3,28.1-5.1C75.6,71.5,71.4,79.1,69,83.6c1.2,0.7,2.1,1.8,2.5,3.1c1-1.5,2.4-2.6,4-3.3
	c2.5-4.6,7-12.5,13.6-22.2c14.6-1.3,29.3-1.4,43.9-0.4c12.3,17.4,11.3,18.8,16.6,25.2c1-1.4,2.4-2.4,4.1-2.9
	c-2.5-4.5-6.9-12.1-13.4-21.7c15.8,1.6,25.4,3.9,28.2,4.6c-1.6,5.6-3.5,11.4-5.7,17.3c1,0.4,1.9,1,2.7,1.7l0,0
	c0.8-1.2,2.1-2,3.5-2.2c1.9-5.2,3.6-10.4,5-15.4c4.6,1.2,9.1,2.6,13.5,4.3c41.4,15.6,28.9,34.3,28.4,35.3
	C208,120.8,184.5,128.6,174.5,131.5z"/>
<text transform="matrix(1 0 0 1 124.2548 107.9121)" class="st1 st2 st3">Indoor</text>
<text transform="matrix(1 0 0 1 36.2234 107.9121)" class="st1 st2 st3">React</text>
<g>
	<path class="st4" d="M319.3,22.8c7.9,0,14.2,1.7,18.7,5.3c4.8,3.9,7.2,9.5,7.2,16.9c0,4-1.1,7.6-3.2,10.7c-2.4,3.5-5.7,5.7-9.8,6.8
		v0.2c6.7,1.5,10.5,5.9,11.4,13.5l1.3,12.4c0.4,4.8,2.1,8.5,4.6,11.4h-13.7c-1.8-2.4-2.9-5.7-3.4-10.1l-1-9.5
		c-0.4-4.2-1.7-7.2-3.9-9.1c-2.3-1.9-5.6-2.8-9.9-2.8h-20V100h-12.7V22.8H319.3z M297.5,57.7h20c5,0,8.8-1.1,11.4-3.1
		c2.4-2.2,3.6-5.2,3.6-9.1c0-4.2-1.2-7.2-3.6-9.1c-2.4-1.9-6.2-2.8-11.4-2.8h-20V57.7z"/>
	<path class="st4" d="M401.9,51.9c4.4,5.6,6.7,13.5,6.7,23.6h-41.9c0.4,5.2,1.8,9.2,4.2,11.9c2.4,2.7,5.8,4.1,10.3,4.1
		c3.8,0,6.8-0.9,9.2-2.6c1.8-1.4,3.5-3.7,5-6.8h12.3c-1.3,5.2-3.9,9.6-7.8,13.1c-5,4.2-11.1,6.4-18.6,6.4c-8.3,0-14.9-2.6-19.8-7.7
		c-5.2-5.3-7.8-12.5-7.8-21.8c0-8.3,2.4-15.2,7.4-20.9c4.8-5.7,11.4-8.5,19.7-8.5C390,42.6,397,45.6,401.9,51.9z M371.5,56.1
		c-2.3,2.3-3.8,5.6-4.5,10.1h28.8c-1.1-9.1-5.9-13.5-14.6-13.5C377,52.6,373.9,53.7,371.5,56.1z"/>
	<path class="st4" d="M459.8,48.7c3.5,3.6,5.2,8.8,5.2,15.6V100h-11.5v-7.4c-2.2,2.8-4.9,4.9-8,6.4c-3.6,1.6-7.8,2.5-12.7,2.5
		c-5.8,0-10.4-1.5-13.7-4.4c-3.5-3-5.2-6.8-5.2-11.5c0-6.3,2.4-11.1,7.4-14.5c4.5-3.2,10.9-5,19.1-5.2l12.2-0.3v-2.2
		c0-7.4-4-10.9-12-10.9c-3.5,0-6.2,0.5-8.2,1.8c-2.4,1.4-4,3.6-4.6,6.5l-12.2-1c1.2-6.2,4.2-10.7,9.1-13.5c4.1-2.6,9.7-3.8,16.9-3.8
		C449.8,42.6,456,44.6,459.8,48.7z M441.4,74.8c-9.8,0.2-14.7,3.7-14.7,10.4c0,1.9,0.8,3.6,2.5,4.9c1.7,1.3,3.9,2.1,6.6,2.1
		c4.8,0,8.8-1.4,12-4.1c3.2-2.8,5-6.4,5-10.7v-2.8L441.4,74.8z"/>
	<path class="st4" d="M518.2,47.4c4.4,3.5,7.2,8.7,8.3,15.7h-12.2c-0.8-3.6-2.3-6.2-4.4-7.9c-2.3-1.7-5.3-2.6-9-2.6
		c-4.5,0-8.1,1.6-10.7,5.1c-2.6,3.4-3.9,8.1-3.9,14.2c0,6.2,1.2,11,3.8,14.5c2.4,3.4,5.9,5.1,10.7,5.1c8.2,0,12.8-4.1,13.7-12.2
		h12.2c-1.3,7.6-4.2,13.2-8.7,16.9c-4.3,3.6-10.2,5.4-17.4,5.4c-8.7,0-15.4-2.8-20.1-8.4c-4.6-5.4-6.9-12.4-6.9-21.1
		c0-8.4,2.3-15.4,6.8-20.7c4.9-5.8,11.7-8.8,20.4-8.8C508.2,42.6,513.9,44.2,518.2,47.4z"/>
	<path class="st4" d="M551.9,44.1h12.4v10.2h-12.4v31.6c0,1.3,0.2,2.3,0.9,3c0.6,0.6,1.5,1,2.8,1h7.4V100h-9.4
		c-4.9,0-8.4-1.3-10.7-3.9c-2.2-2.4-3.2-5.7-3.2-10.3V54.2h-10.1V44.1h10.1v-13l12.3-5.1V44.1z"/>
	<path class="st4" d="M618.9,22.8V100h-12.7V22.8H618.9z"/>
	<path class="st4" d="M680.7,65.5V100h-12.3V66.6c0-9.2-4.2-13.7-12.7-13.7c-3,0-5.7,1.1-8,3.2c-2.6,2.4-4.1,5.8-4.5,10.3V100h-12.3
		V44.1h12.3v6.5c2.2-2.6,4.6-4.6,7.4-5.9c2.8-1.4,5.8-2.1,9.2-2.1C673.6,42.6,680.7,50.1,680.7,65.5z"/>
	<path class="st4" d="M743.6,21.3V100h-11.5V94c-3.9,5-9.5,7.5-16.9,7.5c-8.3,0-14.8-2.9-19.5-8.8c-4.3-5.4-6.5-12.4-6.5-21
		c0-8.2,2.1-15,6.4-20.4c4.5-5.8,10.9-8.8,18.9-8.8c6.5,0,12,3,16.7,9.2V21.3H743.6z M705.3,58c-2.3,3.1-3.4,7.7-3.4,13.7
		c0,6.1,1,10.7,3.1,13.9c2.5,3.9,6.5,5.8,12,5.8c4.8,0,8.5-1.9,11.1-5.7c2.3-3.5,3.5-8,3.5-13.4v-0.9c0-5.9-1.5-10.7-4.3-14.2
		c-2.6-3.2-5.9-4.9-9.8-4.9C711.9,52.5,707.9,54.4,705.3,58z"/>
	<path class="st4" d="M800.8,50.9c5.1,5.5,7.7,12.5,7.7,21.2c0,8.5-2.6,15.6-7.6,21c-5.2,5.6-12.1,8.4-20.5,8.4
		c-8.5,0-15.4-2.8-20.5-8.4c-5.1-5.4-7.6-12.4-7.6-21c0-8.7,2.5-15.7,7.7-21.2c5.1-5.6,11.9-8.3,20.4-8.3
		C788.8,42.6,795.6,45.3,800.8,50.9z M768.5,58.7c-2.4,3.5-3.6,8-3.6,13.4s1.2,9.8,3.6,13.3c2.8,4,6.7,6.1,11.9,6.1
		c5.1,0,9.1-2.1,11.9-6.1c2.4-3.6,3.7-8,3.7-13.3c0-5.4-1.3-9.9-3.7-13.4c-2.8-4.1-6.8-6.1-11.9-6.1
		C775.2,52.6,771.3,54.6,768.5,58.7z"/>
	<path class="st4" d="M863.5,50.9c5.1,5.5,7.7,12.5,7.7,21.2c0,8.5-2.6,15.6-7.6,21c-5.2,5.6-12.1,8.4-20.5,8.4
		c-8.5,0-15.4-2.8-20.5-8.4c-5.1-5.4-7.6-12.4-7.6-21c0-8.7,2.5-15.7,7.7-21.2c5.1-5.6,11.9-8.3,20.4-8.3
		C851.5,42.6,858.3,45.3,863.5,50.9z M831.2,58.7c-2.4,3.5-3.6,8-3.6,13.4s1.2,9.8,3.6,13.3c2.8,4,6.7,6.1,11.9,6.1
		c5.1,0,9.1-2.1,11.9-6.1c2.4-3.6,3.7-8,3.7-13.3c0-5.4-1.3-9.9-3.7-13.4c-2.8-4.1-6.8-6.1-11.9-6.1C837.9,52.6,834,54.6,831.2,58.7
		z"/>
	<path class="st4" d="M913.3,44v12.3c-2.8-0.9-5.4-1.2-8-1.2c-3.2,0-6.2,1.2-8.8,3.8c-3,2.9-4.4,6.7-4.4,11.5V100h-12.2V44.1h12.2v8
		c1.5-2.8,3.2-5,5.3-6.5c2.5-2.1,5.4-3,8.9-3C908.9,42.6,911.3,43,913.3,44z"/>
</g>
<g>
	<path class="st5" d="M284.3,136l6.8,27.6h0.2l7.2-27.6h6.1l7.2,27.6h0.2l6.8-27.6h6.7L315,172.3h-6.3l-7.1-27.3h-0.2l-7.1,27.3H288
		L277.6,136H284.3z"/>
	<path class="st5" d="M348.9,149.7c2.1,2.6,3.2,6.4,3.2,11.1h-19.7c0.2,2.4,0.9,4.3,2,5.6c1.1,1.3,2.7,1.9,4.8,1.9
		c1.8,0,3.2-0.4,4.3-1.2c0.9-0.7,1.6-1.7,2.3-3.2h5.8c-0.6,2.4-1.8,4.5-3.7,6.1c-2.3,2-5.2,3-8.7,3c-3.9,0-7-1.2-9.3-3.6
		c-2.4-2.5-3.7-5.9-3.7-10.3c0-3.9,1.1-7.2,3.5-9.8c2.2-2.7,5.3-4,9.2-4C343.3,145.3,346.6,146.7,348.9,149.7z M334.6,151.7
		c-1.1,1.1-1.8,2.6-2.1,4.7H346c-0.5-4.3-2.8-6.4-6.9-6.4C337.2,150,335.7,150.5,334.6,151.7z"/>
	<path class="st5" d="M361.4,135.3v14.3c2.1-2.9,4.8-4.3,7.8-4.3c3.8,0,6.7,1.4,8.9,4.1c2,2.5,3,5.7,3,9.6c0,4-1,7.3-3,9.9
		c-2.2,2.7-5.3,4.1-9.1,4.1c-3.5,0-6.1-1.2-7.9-3.5v2.8h-5.4v-37H361.4z M363.2,152.3c-1.4,1.6-2,3.9-2,6.7v0.4
		c0,2.5,0.5,4.7,1.6,6.3c1.2,1.8,2.9,2.7,5.2,2.7c2.5,0,4.4-0.9,5.6-2.7c1-1.5,1.5-3.7,1.5-6.6s-0.6-5-1.6-6.5
		c-1.2-1.7-3.2-2.6-5.7-2.6C365.9,150,364.4,150.7,363.2,152.3z"/>
	<path class="st5" d="M412.4,138.4c2.6,2,4.2,5,4.9,9.1h-6c-0.5-2.3-1.6-4.1-3.3-5.2c-1.7-1.2-3.9-1.7-6.7-1.7
		c-3.4,0-6.1,1.1-8.1,3.5c-2.2,2.4-3.3,5.8-3.3,10.3c0,4.3,1,7.6,2.9,9.9c2.1,2.4,5.3,3.7,9.8,3.7c1.7,0,3.4-0.2,4.9-0.6
		c1.4-0.4,2.7-1,3.9-1.7v-7.5h-9.6V153h15.5v15.3c-1.9,1.5-4.1,2.6-6.6,3.5c-2.6,0.8-5.5,1.2-8.8,1.2c-5.8,0-10.3-1.8-13.5-5.5
		c-3-3.4-4.5-7.8-4.5-13.2c0-5.4,1.5-9.9,4.5-13.4c3.2-3.8,7.4-5.6,12.8-5.6C406.1,135.3,409.7,136.3,412.4,138.4z"/>
	<path class="st5" d="M428.8,135.3v37H423v-37H428.8z"/>
	<path class="st5" d="M456.1,135.3v14.3c2.1-2.9,4.8-4.3,7.8-4.3c3.8,0,6.7,1.4,8.9,4.1c2,2.5,3,5.7,3,9.6c0,4-1,7.3-3,9.9
		c-2.2,2.7-5.3,4.1-9.1,4.1c-3.5,0-6.1-1.2-7.9-3.5v2.8h-5.4v-37H456.1z M458,152.3c-1.4,1.6-2,3.9-2,6.7v0.4c0,2.5,0.5,4.7,1.6,6.3
		c1.2,1.8,2.9,2.7,5.2,2.7c2.5,0,4.4-0.9,5.6-2.7c1-1.5,1.5-3.7,1.5-6.6s-0.6-5-1.6-6.5c-1.2-1.7-3.2-2.6-5.7-2.6
		C460.7,150,459.2,150.7,458,152.3z"/>
	<path class="st5" d="M500.4,148.2c1.6,1.7,2.4,4.1,2.4,7.3v16.8h-5.4v-3.5c-1,1.3-2.3,2.3-3.8,3c-1.7,0.8-3.7,1.2-5.9,1.2
		c-2.7,0-4.9-0.7-6.5-2.1c-1.6-1.4-2.4-3.2-2.4-5.4c0-2.9,1.1-5.2,3.5-6.8c2.1-1.5,5.1-2.3,9-2.4l5.7-0.2v-1c0-3.5-1.9-5.1-5.6-5.1
		c-1.6,0-2.9,0.3-3.9,0.9c-1.1,0.7-1.9,1.7-2.2,3l-5.7-0.5c0.6-2.9,2-5,4.3-6.4c1.9-1.2,4.6-1.8,7.9-1.8
		C495.7,145.3,498.6,146.3,500.4,148.2z M491.7,160.5c-4.6,0.1-6.9,1.7-6.9,4.9c0,0.9,0.4,1.7,1.2,2.3c0.8,0.6,1.8,1,3.1,1
		c2.2,0,4.1-0.7,5.6-1.9c1.5-1.3,2.3-3,2.3-5v-1.3L491.7,160.5z"/>
	<path class="st5" d="M529.2,153.6h-5.6c-0.4-1.3-1-2.3-1.8-2.8c-0.9-0.6-2.2-0.8-4-0.8c-1.5,0-2.7,0.2-3.5,0.7
		c-0.9,0.5-1.3,1.2-1.3,2.2c0,0.8,0.7,1.6,2.1,2.2c0.9,0.4,2.6,0.9,5.2,1.5c2.9,0.7,5.2,1.5,6.6,2.5c2.1,1.3,3.2,3.2,3.2,5.5
		c0,5.6-4,8.4-11.8,8.4c-7.3,0-11.2-3.1-11.8-9.2h5.6c0.3,1.7,0.9,2.8,1.8,3.6c0.9,0.6,2.2,1,4.2,1c4.1,0,6.1-1.1,6.1-3.3
		c0-1.2-0.8-2.2-2.3-2.9c-0.8-0.4-2.5-0.9-5.2-1.5c-3.1-0.7-5.3-1.5-6.6-2.3c-2-1.3-3-3-3-5.3c0-2.4,1-4.3,3-5.6
		c2-1.4,4.6-2.1,7.8-2.1C524.8,145.3,528.6,148.1,529.2,153.6z"/>
	<path class="st5" d="M554.7,149.7c2.1,2.6,3.2,6.4,3.2,11.1h-19.7c0.2,2.4,0.9,4.3,2,5.6c1.1,1.3,2.7,1.9,4.8,1.9
		c1.8,0,3.2-0.4,4.3-1.2c0.9-0.7,1.6-1.7,2.3-3.2h5.8c-0.6,2.4-1.8,4.5-3.7,6.1c-2.3,2-5.2,3-8.7,3c-3.9,0-7-1.2-9.3-3.6
		c-2.4-2.5-3.7-5.9-3.7-10.3c0-3.9,1.1-7.2,3.5-9.8c2.2-2.7,5.3-4,9.2-4C549.1,145.3,552.4,146.7,554.7,149.7z M540.4,151.7
		c-1.1,1.1-1.8,2.6-2.1,4.7h13.5c-0.5-4.3-2.8-6.4-6.9-6.4C543,150,541.5,150.5,540.4,151.7z"/>
	<path class="st5" d="M585.9,135.3v37h-5.4v-2.8c-1.8,2.3-4.5,3.5-7.9,3.5c-3.9,0-7-1.4-9.1-4.1c-2-2.5-3-5.8-3-9.9
		c0-3.9,1-7.1,3-9.6c2.1-2.7,5.1-4.1,8.9-4.1c3,0,5.6,1.4,7.8,4.3v-14.3H585.9z M567.9,152.6c-1.1,1.5-1.6,3.6-1.6,6.5
		s0.5,5,1.5,6.6c1.2,1.8,3,2.7,5.6,2.7c2.2,0,4-0.9,5.2-2.7c1.1-1.6,1.6-3.8,1.6-6.3v-0.4c0-2.8-0.7-5-2-6.7
		c-1.2-1.5-2.8-2.3-4.6-2.3C571,150,569.1,150.8,567.9,152.6z"/>
	<path class="st5" d="M622.6,146v5.8c-1.3-0.4-2.5-0.6-3.8-0.6c-1.5,0-2.9,0.6-4.1,1.8c-1.4,1.4-2.1,3.2-2.1,5.4v13.9h-5.7V146h5.7
		v3.8c0.7-1.3,1.5-2.3,2.5-3c1.2-1,2.5-1.4,4.2-1.4C620.6,145.3,621.7,145.5,622.6,146z"/>
	<path class="st5" d="M646,149.7c2.1,2.6,3.2,6.4,3.2,11.1h-19.7c0.2,2.4,0.9,4.3,2,5.6c1.1,1.3,2.7,1.9,4.8,1.9
		c1.8,0,3.2-0.4,4.3-1.2c0.9-0.7,1.6-1.7,2.3-3.2h5.8c-0.6,2.4-1.8,4.5-3.7,6.1c-2.3,2-5.2,3-8.7,3c-3.9,0-7-1.2-9.3-3.6
		c-2.4-2.5-3.7-5.9-3.7-10.3c0-3.9,1.1-7.2,3.5-9.8c2.2-2.7,5.3-4,9.2-4C640.4,145.3,643.7,146.7,646,149.7z M631.7,151.7
		c-1.1,1.1-1.8,2.6-2.1,4.7h13.5c-0.5-4.3-2.8-6.4-6.9-6.4C634.3,150,632.8,150.5,631.7,151.7z"/>
	<path class="st5" d="M673.2,148.2c1.6,1.7,2.4,4.1,2.4,7.3v16.8h-5.4v-3.5c-1,1.3-2.3,2.3-3.8,3c-1.7,0.8-3.7,1.2-5.9,1.2
		c-2.7,0-4.9-0.7-6.5-2.1c-1.6-1.4-2.4-3.2-2.4-5.4c0-2.9,1.1-5.2,3.5-6.8c2.1-1.5,5.1-2.3,9-2.4l5.7-0.2v-1c0-3.5-1.9-5.1-5.6-5.1
		c-1.6,0-2.9,0.3-3.9,0.9c-1.1,0.7-1.9,1.7-2.2,3l-5.7-0.5c0.6-2.9,2-5,4.3-6.4c1.9-1.2,4.6-1.8,7.9-1.8
		C668.5,145.3,671.4,146.3,673.2,148.2z M664.5,160.5c-4.6,0.1-6.9,1.7-6.9,4.9c0,0.9,0.4,1.7,1.2,2.3c0.8,0.6,1.8,1,3.1,1
		c2.2,0,4.1-0.7,5.6-1.9c1.5-1.3,2.3-3,2.3-5v-1.3L664.5,160.5z"/>
	<path class="st5" d="M700.6,147.6c2.1,1.6,3.4,4.1,3.9,7.4h-5.7c-0.4-1.7-1.1-2.9-2.1-3.7c-1.1-0.8-2.5-1.2-4.2-1.2
		c-2.1,0-3.8,0.8-5,2.4c-1.2,1.6-1.8,3.8-1.8,6.7c0,2.9,0.6,5.2,1.8,6.8c1.1,1.6,2.8,2.4,5,2.4c3.9,0,6-1.9,6.5-5.7h5.7
		c-0.6,3.6-2,6.2-4.1,7.9c-2,1.7-4.8,2.5-8.2,2.5c-4.1,0-7.2-1.3-9.5-4c-2.2-2.5-3.3-5.8-3.3-9.9c0-4,1.1-7.2,3.2-9.7
		c2.3-2.7,5.5-4.1,9.6-4.1C695.9,145.3,698.6,146.1,700.6,147.6z"/>
	<path class="st5" d="M716.4,146h5.8v4.8h-5.8v14.8c0,0.6,0.1,1.1,0.4,1.4c0.3,0.3,0.7,0.5,1.3,0.5h3.5v4.8h-4.4c-2.3,0-4-0.6-5-1.8
		c-1-1.1-1.5-2.7-1.5-4.8v-14.8h-4.7V146h4.7v-6.1l5.8-2.4V146z"/>
	<path class="st5" d="M761.4,147.6c2.1,1.6,3.4,4.1,3.9,7.4h-5.7c-0.4-1.7-1.1-2.9-2.1-3.7c-1.1-0.8-2.5-1.2-4.2-1.2
		c-2.1,0-3.8,0.8-5,2.4c-1.2,1.6-1.8,3.8-1.8,6.7c0,2.9,0.6,5.2,1.8,6.8c1.1,1.6,2.8,2.4,5,2.4c3.9,0,6-1.9,6.5-5.7h5.7
		c-0.6,3.6-2,6.2-4.1,7.9c-2,1.7-4.8,2.5-8.2,2.5c-4.1,0-7.2-1.3-9.5-4c-2.2-2.5-3.3-5.8-3.3-9.9c0-4,1.1-7.2,3.2-9.7
		c2.3-2.7,5.5-4.1,9.6-4.1C756.7,145.3,759.4,146.1,761.4,147.6z"/>
	<path class="st5" d="M790.8,149.2c2.4,2.6,3.6,5.9,3.6,10c0,4-1.2,7.3-3.6,9.9c-2.4,2.6-5.7,4-9.7,4c-4,0-7.2-1.3-9.7-4
		c-2.4-2.5-3.6-5.8-3.6-9.9c0-4.1,1.2-7.4,3.6-10c2.4-2.6,5.6-3.9,9.6-3.9C785.1,145.3,788.3,146.6,790.8,149.2z M775.6,152.9
		c-1.1,1.6-1.7,3.8-1.7,6.3s0.6,4.6,1.7,6.2c1.3,1.9,3.2,2.8,5.6,2.8c2.4,0,4.3-1,5.6-2.8c1.1-1.7,1.7-3.8,1.7-6.2
		c0-2.5-0.6-4.7-1.7-6.3c-1.3-1.9-3.2-2.8-5.6-2.8C778.7,150,776.9,151,775.6,152.9z"/>
	<path class="st5" d="M819.6,149.6c1.2-1.6,2.5-2.7,3.8-3.4c1.2-0.6,2.6-0.9,4.4-0.9c2.7,0,4.9,0.9,6.8,2.7c1.7,1.8,2.6,4.2,2.6,7.1
		v17.2h-5.8v-16.2c0-2.1-0.5-3.6-1.3-4.5c-0.9-1-2.3-1.4-4.4-1.4c-1.4,0-2.6,0.5-3.6,1.6c-1,1.1-1.5,2.5-1.5,4.5v16.1H815v-16.2
		c0-4-1.7-6-5.2-6c-1.7,0-3,0.6-4,1.9c-1,1.2-1.5,2.7-1.5,4.5v15.8h-5.8V146h5.8v2.7c2.2-2.3,4.6-3.4,7.1-3.4
		C815.2,145.3,818,146.7,819.6,149.6z"/>
	<path class="st5" d="M864.8,149.4c2,2.5,3,5.8,3,9.9c0,3.9-1,7.1-3,9.6c-2.1,2.7-5.1,4.1-8.9,4.1c-3,0-5.7-1.5-7.8-4.3v13.7h-5.8
		V146h5.4v2.8c1.8-2.3,4.5-3.5,7.9-3.5C859.5,145.3,862.6,146.7,864.8,149.4z M849.6,152.7c-1.1,1.6-1.6,3.7-1.6,6.3v0.4
		c0,2.7,0.7,5,2,6.7c1.2,1.5,2.7,2.3,4.6,2.3c2.5,0,4.5-0.9,5.7-2.5c1.1-1.5,1.6-3.7,1.6-6.6s-0.5-5-1.5-6.6
		c-1.2-1.8-3.1-2.7-5.6-2.7C852.5,150,850.8,150.8,849.6,152.7z"/>
	<path class="st5" d="M893.7,149.2c2.4,2.6,3.6,5.9,3.6,10c0,4-1.2,7.3-3.6,9.9c-2.4,2.6-5.7,4-9.7,4c-4,0-7.2-1.3-9.7-4
		c-2.4-2.5-3.6-5.8-3.6-9.9c0-4.1,1.2-7.4,3.6-10c2.4-2.6,5.6-3.9,9.6-3.9C888.1,145.3,891.3,146.6,893.7,149.2z M878.5,152.9
		c-1.1,1.6-1.7,3.8-1.7,6.3s0.6,4.6,1.7,6.2c1.3,1.9,3.2,2.8,5.6,2.8c2.4,0,4.3-1,5.6-2.8c1.1-1.7,1.7-3.8,1.7-6.2
		c0-2.5-0.6-4.7-1.7-6.3c-1.3-1.9-3.2-2.8-5.6-2.8C881.7,150,879.9,151,878.5,152.9z"/>
	<path class="st5" d="M924.8,156.1v16.2H919v-15.7c0-4.3-2-6.5-5.9-6.5c-1.4,0-2.7,0.5-3.8,1.5c-1.2,1.1-1.9,2.7-2.1,4.8v15.8h-5.8
		V146h5.8v3c1-1.2,2.2-2.2,3.5-2.8c1.3-0.7,2.7-1,4.3-1C921.5,145.3,924.8,148.9,924.8,156.1z"/>
	<path class="st5" d="M951,149.7c2.1,2.6,3.2,6.4,3.2,11.1h-19.7c0.2,2.4,0.9,4.3,2,5.6c1.1,1.3,2.7,1.9,4.8,1.9
		c1.8,0,3.2-0.4,4.3-1.2c0.9-0.7,1.6-1.7,2.3-3.2h5.8c-0.6,2.4-1.8,4.5-3.7,6.1c-2.3,2-5.2,3-8.7,3c-3.9,0-7-1.2-9.3-3.6
		c-2.4-2.5-3.7-5.9-3.7-10.3c0-3.9,1.1-7.2,3.5-9.8c2.2-2.7,5.3-4,9.2-4C945.4,145.3,948.7,146.7,951,149.7z M936.7,151.7
		c-1.1,1.1-1.8,2.6-2.1,4.7h13.5c-0.5-4.3-2.8-6.4-6.9-6.4C939.3,150,937.8,150.5,936.7,151.7z"/>
	<path class="st5" d="M981.1,156.1v16.2h-5.8v-15.7c0-4.3-2-6.5-5.9-6.5c-1.4,0-2.7,0.5-3.8,1.5c-1.2,1.1-1.9,2.7-2.1,4.8v15.8h-5.8
		V146h5.8v3c1-1.2,2.2-2.2,3.5-2.8c1.3-0.7,2.7-1,4.3-1C977.8,145.3,981.1,148.9,981.1,156.1z"/>
	<path class="st5" d="M994.4,146h5.8v4.8h-5.8v14.8c0,0.6,0.1,1.1,0.4,1.4c0.3,0.3,0.7,0.5,1.3,0.5h3.5v4.8h-4.4c-2.3,0-4-0.6-5-1.8
		c-1-1.1-1.5-2.7-1.5-4.8v-14.8h-4.7V146h4.7v-6.1l5.8-2.4V146z"/>
	<path class="st5" d="M1035.4,136v4.9h-4.8c-0.8,0-1.3,0.2-1.7,0.6c-0.4,0.4-0.6,1-0.6,1.9v2.6h6.7v4.7h-6.7v21.5h-5.8v-21.5h-5.8
		V146h5.8v-2.8c0-2.2,0.6-4,1.9-5.3c1.2-1.3,3-1.9,5.4-1.9H1035.4z"/>
	<path class="st5" d="M1059.5,149.2c2.4,2.6,3.6,5.9,3.6,10c0,4-1.2,7.3-3.6,9.9c-2.4,2.6-5.7,4-9.7,4c-4,0-7.2-1.3-9.7-4
		c-2.4-2.5-3.6-5.8-3.6-9.9c0-4.1,1.2-7.4,3.6-10c2.4-2.6,5.6-3.9,9.6-3.9C1053.8,145.3,1057.1,146.6,1059.5,149.2z M1044.3,152.9
		c-1.1,1.6-1.7,3.8-1.7,6.3s0.6,4.6,1.7,6.2c1.3,1.9,3.2,2.8,5.6,2.8c2.4,0,4.3-1,5.6-2.8c1.1-1.7,1.7-3.8,1.7-6.2
		c0-2.5-0.6-4.7-1.7-6.3c-1.3-1.9-3.2-2.8-5.6-2.8C1047.4,150,1045.6,151,1044.3,152.9z"/>
	<path class="st5" d="M1082.9,146v5.8c-1.3-0.4-2.5-0.6-3.8-0.6c-1.5,0-2.9,0.6-4.1,1.8c-1.4,1.4-2.1,3.2-2.1,5.4v13.9h-5.7V146h5.7
		v3.8c0.7-1.3,1.5-2.3,2.5-3c1.2-1,2.5-1.4,4.2-1.4C1080.8,145.3,1082,145.5,1082.9,146z"/>
	<path class="st5" d="M1107.8,136.4c0.7,0.7,1.1,1.6,1.1,2.7c0,1.1-0.4,2.1-1.2,2.8c-0.8,0.7-1.7,1.1-2.8,1.1c-1.1,0-2-0.4-2.8-1.1
		c-0.8-0.8-1.1-1.7-1.1-2.8c0-1.1,0.4-2,1.1-2.7c0.8-0.7,1.7-1.1,2.8-1.1C1106.1,135.3,1107.1,135.7,1107.8,136.4z M1107.9,146v26.3
		h-5.8V146H1107.9z"/>
	<path class="st5" d="M1137.4,156.1v16.2h-5.8v-15.7c0-4.3-2-6.5-5.9-6.5c-1.4,0-2.7,0.5-3.8,1.5c-1.2,1.1-1.9,2.7-2.1,4.8v15.8
		h-5.8V146h5.8v3c1-1.2,2.2-2.2,3.5-2.8c1.3-0.7,2.7-1,4.3-1C1134.1,145.3,1137.4,148.9,1137.4,156.1z"/>
	<path class="st5" d="M1167,135.3v37h-5.4v-2.8c-1.8,2.3-4.5,3.5-7.9,3.5c-3.9,0-7-1.4-9.1-4.1c-2-2.5-3-5.8-3-9.9
		c0-3.9,1-7.1,3-9.6c2.1-2.7,5.1-4.1,8.9-4.1c3,0,5.6,1.4,7.8,4.3v-14.3H1167z M1149,152.6c-1.1,1.5-1.6,3.6-1.6,6.5s0.5,5,1.5,6.6
		c1.2,1.8,3,2.7,5.6,2.7c2.2,0,4-0.9,5.2-2.7c1.1-1.6,1.6-3.8,1.6-6.3v-0.4c0-2.8-0.7-5-2-6.7c-1.2-1.5-2.8-2.3-4.6-2.3
		C1152.1,150,1150.2,150.8,1149,152.6z"/>
	<path class="st5" d="M1193.9,149.2c2.4,2.6,3.6,5.9,3.6,10c0,4-1.2,7.3-3.6,9.9c-2.4,2.6-5.7,4-9.7,4c-4,0-7.2-1.3-9.7-4
		c-2.4-2.5-3.6-5.8-3.6-9.9c0-4.1,1.2-7.4,3.6-10c2.4-2.6,5.6-3.9,9.6-3.9C1188.3,145.3,1191.5,146.6,1193.9,149.2z M1178.7,152.9
		c-1.1,1.6-1.7,3.8-1.7,6.3s0.6,4.6,1.7,6.2c1.3,1.9,3.2,2.8,5.6,2.8c2.4,0,4.3-1,5.6-2.8c1.1-1.7,1.7-3.8,1.7-6.2
		c0-2.5-0.6-4.7-1.7-6.3c-1.3-1.9-3.2-2.8-5.6-2.8C1181.9,150,1180,151,1178.7,152.9z"/>
	<path class="st5" d="M1223.4,149.2c2.4,2.6,3.6,5.9,3.6,10c0,4-1.2,7.3-3.6,9.9c-2.4,2.6-5.7,4-9.7,4c-4,0-7.2-1.3-9.7-4
		c-2.4-2.5-3.6-5.8-3.6-9.9c0-4.1,1.2-7.4,3.6-10c2.4-2.6,5.6-3.9,9.6-3.9C1217.7,145.3,1220.9,146.6,1223.4,149.2z M1208.2,152.9
		c-1.1,1.6-1.7,3.8-1.7,6.3s0.6,4.6,1.7,6.2c1.3,1.9,3.2,2.8,5.6,2.8c2.4,0,4.3-1,5.6-2.8c1.1-1.7,1.7-3.8,1.7-6.2
		c0-2.5-0.6-4.7-1.7-6.3c-1.3-1.9-3.2-2.8-5.6-2.8C1211.3,150,1209.5,151,1208.2,152.9z"/>
	<path class="st5" d="M1246.7,146v5.8c-1.3-0.4-2.5-0.6-3.8-0.6c-1.5,0-2.9,0.6-4.1,1.8c-1.4,1.4-2.1,3.2-2.1,5.4v13.9h-5.7V146h5.7
		v3.8c0.7-1.3,1.5-2.3,2.5-3c1.2-1,2.5-1.4,4.2-1.4C1244.7,145.3,1245.8,145.5,1246.7,146z"/>
	<path class="st5" d="M1286.1,149.6c1.2-1.6,2.5-2.7,3.8-3.4c1.2-0.6,2.6-0.9,4.4-0.9c2.7,0,4.9,0.9,6.8,2.7
		c1.7,1.8,2.6,4.2,2.6,7.1v17.2h-5.8v-16.2c0-2.1-0.5-3.6-1.3-4.5c-0.9-1-2.3-1.4-4.4-1.4c-1.4,0-2.6,0.5-3.6,1.6
		c-1,1.1-1.5,2.5-1.5,4.5v16.1h-5.8v-16.2c0-4-1.7-6-5.2-6c-1.7,0-3,0.6-4,1.9c-1,1.2-1.5,2.7-1.5,4.5v15.8h-5.8V146h5.8v2.7
		c2.2-2.3,4.6-3.4,7.1-3.4C1281.7,145.3,1284.4,146.7,1286.1,149.6z"/>
	<path class="st5" d="M1329.4,148.2c1.6,1.7,2.4,4.1,2.4,7.3v16.8h-5.4v-3.5c-1,1.3-2.3,2.3-3.8,3c-1.7,0.8-3.7,1.2-5.9,1.2
		c-2.7,0-4.9-0.7-6.5-2.1c-1.6-1.4-2.4-3.2-2.4-5.4c0-2.9,1.1-5.2,3.5-6.8c2.1-1.5,5.1-2.3,9-2.4l5.7-0.2v-1c0-3.5-1.9-5.1-5.6-5.1
		c-1.6,0-2.9,0.3-3.9,0.9c-1.1,0.7-1.9,1.7-2.2,3l-5.7-0.5c0.6-2.9,2-5,4.3-6.4c1.9-1.2,4.6-1.8,7.9-1.8
		C1324.6,145.3,1327.5,146.3,1329.4,148.2z M1320.7,160.5c-4.6,0.1-6.9,1.7-6.9,4.9c0,0.9,0.4,1.7,1.2,2.3c0.8,0.6,1.8,1,3.1,1
		c2.2,0,4.1-0.7,5.6-1.9c1.5-1.3,2.3-3,2.3-5v-1.3L1320.7,160.5z"/>
	<path class="st5" d="M1359.3,149.4c2,2.5,3,5.8,3,9.9c0,3.9-1,7.1-3,9.6c-2.1,2.7-5.1,4.1-8.9,4.1c-3,0-5.7-1.5-7.8-4.3v13.7h-5.8
		V146h5.4v2.8c1.8-2.3,4.5-3.5,7.9-3.5C1354.1,145.3,1357.1,146.7,1359.3,149.4z M1344.1,152.7c-1.1,1.6-1.6,3.7-1.6,6.3v0.4
		c0,2.7,0.7,5,2,6.7c1.2,1.5,2.7,2.3,4.6,2.3c2.5,0,4.5-0.9,5.7-2.5c1.1-1.5,1.6-3.7,1.6-6.6s-0.5-5-1.5-6.6
		c-1.2-1.8-3.1-2.7-5.6-2.7C1347,150,1345.3,150.8,1344.1,152.7z"/>
	<path class="st5" d="M1398.1,146v5.8c-1.3-0.4-2.5-0.6-3.8-0.6c-1.5,0-2.9,0.6-4.1,1.8c-1.4,1.4-2.1,3.2-2.1,5.4v13.9h-5.7V146h5.7
		v3.8c0.7-1.3,1.5-2.3,2.5-3c1.2-1,2.5-1.4,4.2-1.4C1396,145.3,1397.1,145.5,1398.1,146z"/>
	<path class="st5" d="M1421.4,149.7c2.1,2.6,3.2,6.4,3.2,11.1h-19.7c0.2,2.4,0.9,4.3,2,5.6c1.1,1.3,2.7,1.9,4.8,1.9
		c1.8,0,3.2-0.4,4.3-1.2c0.9-0.7,1.6-1.7,2.3-3.2h5.8c-0.6,2.4-1.8,4.5-3.7,6.1c-2.3,2-5.2,3-8.7,3c-3.9,0-7-1.2-9.3-3.6
		c-2.4-2.5-3.7-5.9-3.7-10.3c0-3.9,1.1-7.2,3.5-9.8c2.2-2.7,5.3-4,9.2-4C1415.8,145.3,1419.2,146.7,1421.4,149.7z M1407.2,151.7
		c-1.1,1.1-1.8,2.6-2.1,4.7h13.5c-0.5-4.3-2.8-6.4-6.9-6.4C1409.8,150,1408.3,150.5,1407.2,151.7z"/>
	<path class="st5" d="M1451.6,156.1v16.2h-5.8v-15.7c0-4.3-2-6.5-5.9-6.5c-1.4,0-2.7,0.5-3.8,1.5c-1.2,1.1-1.9,2.7-2.1,4.8v15.8
		h-5.8V146h5.8v3c1-1.2,2.2-2.2,3.5-2.8c1.3-0.7,2.7-1,4.3-1C1448.3,145.3,1451.6,148.9,1451.6,156.1z"/>
	<path class="st5" d="M1481.1,135.3v37h-5.4v-2.8c-1.8,2.3-4.5,3.5-7.9,3.5c-3.9,0-7-1.4-9.1-4.1c-2-2.5-3-5.8-3-9.9
		c0-3.9,1-7.1,3-9.6c2.1-2.7,5.1-4.1,8.9-4.1c3,0,5.6,1.4,7.8,4.3v-14.3H1481.1z M1463.2,152.6c-1.1,1.5-1.6,3.6-1.6,6.5
		s0.5,5,1.5,6.6c1.2,1.8,3,2.7,5.6,2.7c2.2,0,4-0.9,5.2-2.7c1.1-1.6,1.6-3.8,1.6-6.3v-0.4c0-2.8-0.7-5-2-6.7
		c-1.2-1.5-2.8-2.3-4.6-2.3C1466.3,150,1464.4,150.8,1463.2,152.6z"/>
	<path class="st5" d="M1507.3,149.7c2.1,2.6,3.2,6.4,3.2,11.1h-19.7c0.2,2.4,0.9,4.3,2,5.6c1.1,1.3,2.7,1.9,4.8,1.9
		c1.8,0,3.2-0.4,4.3-1.2c0.9-0.7,1.6-1.7,2.3-3.2h5.8c-0.6,2.4-1.8,4.5-3.7,6.1c-2.3,2-5.2,3-8.7,3c-3.9,0-7-1.2-9.3-3.6
		c-2.4-2.5-3.7-5.9-3.7-10.3c0-3.9,1.1-7.2,3.5-9.8c2.2-2.7,5.3-4,9.2-4C1501.7,145.3,1505,146.7,1507.3,149.7z M1493,151.7
		c-1.1,1.1-1.8,2.6-2.1,4.7h13.5c-0.5-4.3-2.8-6.4-6.9-6.4C1495.6,150,1494.2,150.5,1493,151.7z"/>
	<path class="st5" d="M1529.7,146v5.8c-1.3-0.4-2.5-0.6-3.8-0.6c-1.5,0-2.9,0.6-4.1,1.8c-1.4,1.4-2.1,3.2-2.1,5.4v13.9h-5.7V146h5.7
		v3.8c0.7-1.3,1.5-2.3,2.5-3c1.2-1,2.5-1.4,4.2-1.4C1527.7,145.3,1528.8,145.5,1529.7,146z"/>
	<path class="st5" d="M1538.8,136.4c0.7,0.7,1.1,1.6,1.1,2.7c0,1.1-0.4,2.1-1.2,2.8c-0.8,0.7-1.7,1.1-2.8,1.1c-1.1,0-2-0.4-2.8-1.1
		c-0.8-0.8-1.1-1.7-1.1-2.8c0-1.1,0.4-2,1.1-2.7c0.8-0.7,1.7-1.1,2.8-1.1C1537,135.3,1538,135.7,1538.8,136.4z M1538.8,146v26.3
		h-5.8V146H1538.8z"/>
	<path class="st5" d="M1568.4,156.1v16.2h-5.8v-15.7c0-4.3-2-6.5-5.9-6.5c-1.4,0-2.7,0.5-3.8,1.5c-1.2,1.1-1.9,2.7-2.1,4.8v15.8
		h-5.8V146h5.8v3c1-1.2,2.2-2.2,3.5-2.8c1.3-0.7,2.7-1,4.3-1C1565.1,145.3,1568.4,148.9,1568.4,156.1z"/>
	<path class="st5" d="M1592.2,149.2V146h5.8v24.6c0,8.3-4.1,12.4-12.3,12.4c-3.7,0-6.5-0.7-8.4-2c-1.9-1.4-3.2-3.6-3.7-6.5h5.8
		c0.3,1.5,0.9,2.5,1.9,3.1c0.9,0.6,2.4,0.9,4.4,0.9c4.4,0,6.6-2.3,6.6-7v-3.9c-1.9,2.7-4.5,4.1-7.8,4.1c-3.6,0-6.5-1.2-8.6-3.6
		c-2.2-2.4-3.3-5.6-3.3-9.6c0-4,1.1-7.2,3.3-9.6c2.2-2.4,5.1-3.7,8.6-3.7C1587.7,145.3,1590.2,146.6,1592.2,149.2z M1580.2,152.3
		c-1.2,1.5-1.8,3.6-1.8,6.3c0,2.5,0.5,4.4,1.4,5.8c1.1,1.7,2.9,2.5,5.4,2.5c2.2,0,4-0.8,5.2-2.2c1.2-1.5,1.8-3.6,1.8-6.2
		c0-2.7-0.6-4.8-1.8-6.3c-1.2-1.5-2.9-2.3-5.1-2.3S1581.5,150.7,1580.2,152.3z"/>
</g>
</svg>
