<?xml version="1.0" encoding="utf-8"?>
<!-- Generator: Adobe Illustrator 21.1.0, SVG Export Plug-In . SVG Version: 6.00 Build 0)  -->
<svg version="1.1" id="Layer_1" xmlns="http://www.w3.org/2000/svg" xmlns:xlink="http://www.w3.org/1999/xlink" x="0px" y="0px"
	 viewBox="0 0 224.8 200" style="enable-background:new 0 0 224.8 200;" xml:space="preserve">
<style type="text/css">
	.st0{fill:#0053D4;}
	.st1{fill:#FFAE2A;}
	.st2{font-family:'zcoolqingkehuangyouti-Regular';}
	.st3{font-size:32.2287px;}
</style>
<path class="st0" d="M190.3,67.2c-4.6-1.7-9.2-3.2-13.9-4.4c7.7-30.5,4.5-52.6-8.7-60.1c-13.5-7.6-33.6,1.7-54,21.6
	c1.3,1.3,2.7,2.6,4,4c32.2-31.2,46.7-20.9,47.2-20.6c8.7,5,14.1,21.8,6.1,53.8c-10.9-2.5-21.9-4.2-33-5.1
	C109.8,17.1,83,0.8,66.7,0.8c-12,0-17.1,8.2-18.6,10.8c-7.1,12.5-5.2,32.9,0,52.3C20.6,71.8,1,85,1.2,101
	c0.2,23.3,40.3,34.3,47.7,36.2c-8,32-3.9,53,8.7,60.1c10.9,6.2,29.3,2.3,54-21.6c-1.3-1.3-2.7-2.6-4-4
	c-32.2,31.2-46.8,20.9-47.2,20.6c-8.7-4.9-14.1-21.7-6.1-53.9c4.8,1.1,16.3,3.7,33,5.1c28.1,39.2,54.9,55.5,71.1,55.5
	c12,0,17.1-8.2,18.6-10.8c7-12.5,5.2-32.8,0-52.3C236.5,118.9,238,85.2,190.3,67.2L190.3,67.2z M53.1,14.4c1.1-2,4.6-7.9,13.6-7.9
	c14.4,0,38.6,15.5,63.8,49.3c-12.2-0.7-24.5-0.6-36.7,0.4c5.1-7.2,10.6-14,16.5-20.5c-1.3-1.4-2.7-2.7-4-4
	c-7.2,7.9-13.8,16.3-19.8,25.1c-11.1,1.1-22.1,3-33,5.7C53.5,61.9,44.1,30.3,53.1,14.4L53.1,14.4z M172.1,185.6
	c-1.1,2-4.6,7.9-13.6,7.9c-14.3,0-38.6-15.4-63.8-49.3c12.2,0.7,24.5,0.6,36.7-0.4c-5.1,7.2-10.6,14-16.5,20.5c1.3,1.4,2.7,2.7,4,4
	c7.2-7.9,13.8-16.3,19.8-25.1c18.5-1.8,31.4-5.3,33-5.7C180.5,170.5,173.4,183.3,172.1,185.6z M175.7,131.5c-1.4-4.6-3-9.4-4.8-14.2
	c-1.7,0-3.3-0.8-4.2-2.2l0,0c-0.6,0.6-1.3,1.1-2.1,1.4c2.2,5.6,4.1,11.1,5.7,16.5c-9.2,2.3-18.6,4-28.1,5.1
	c1.4-2.1,6.7-10.2,12.6-21.2c-0.8-0.3-1.6-0.7-2.3-1.2c-0.4,0.5-1.4,1.6-4.3,1.6c-2.4,4.4-6.8,12.1-13.2,21.6
	c-14.6,1.3-29.3,1.4-43.9,0.4c-3.1-4.4-8.4-12.1-14.4-22.6c-0.4-0.2-0.8-0.4-1.2-0.6c-0.7,0.6-1.5,1.2-4.9,1.2
	c2.5,4.4,6.8,12,13.2,21.3c-9.5-0.9-18.9-2.4-28.2-4.6c1.5-5.5,3.4-11.1,5.5-16.8c-1.2,0-2.1,0.1-3.3-0.4c-0.9,0.3-1.8,0.4-2.7,0.4
	c-1.9,5.2-3.6,10.4-5,15.4C-12.4,116-4.7,84.4,49.5,68.6c1.4,4.6,3,9.4,4.8,14.2c4.1,0,5,1.3,5.6,2.1c0.3-0.3,0.6-0.6,0.9-0.9
	c-2.3-5.7-4.3-11.4-5.9-16.9c2.7-0.7,12.7-3.3,28.1-5.1c-6.2,9.5-10.4,17.1-12.8,21.6c1.2,0.7,2.1,1.8,2.5,3.1c1-1.5,2.4-2.6,4-3.3
	c2.5-4.6,7-12.5,13.6-22.2c14.6-1.3,29.3-1.4,43.9-0.4c12.3,17.4,11.3,18.8,16.6,25.2c1-1.4,2.4-2.4,4.1-2.9
	c-2.5-4.5-6.9-12.1-13.4-21.7c15.8,1.6,25.4,3.9,28.2,4.6c-1.6,5.6-3.5,11.4-5.7,17.3c1,0.4,1.9,1,2.7,1.7l0,0
	c0.8-1.2,2.1-2,3.5-2.2c1.9-5.2,3.6-10.4,5-15.4c4.6,1.2,9.1,2.6,13.5,4.3c41.4,15.6,28.9,34.3,28.4,35.3
	C209.2,120.8,185.7,128.6,175.7,131.5z"/>
<text transform="matrix(1 0 0 1 125.4533 107.9121)" class="st1 st2 st3">Indoor</text>
<text transform="matrix(1 0 0 1 37.4218 107.9121)" class="st1 st2 st3">React</text>
</svg>
