<?xml version="1.0" encoding="utf-8"?>
<!-- Generator: Adobe Illustrator 21.1.0, SVG Export Plug-In . SVG Version: 6.00 Build 0)  -->
<svg version="1.1" id="Layer_1" xmlns="http://www.w3.org/2000/svg" xmlns:xlink="http://www.w3.org/1999/xlink" x="0px" y="0px"
	 viewBox="0 0 200 200" style="enable-background:new 0 0 200 200;" xml:space="preserve">
<style type="text/css">
	.st0{fill:#FFFFFF;stroke:#000000;stroke-width:8;stroke-miterlimit:10;}
	.st1{fill:#EFB336;}
</style>
<path class="st0" d="M162.8,195h-126c-17.6,0-32-14.4-32-32V37c0-17.6,14.4-32,32-32h126c17.6,0,32,14.4,32,32v126
	C194.8,180.6,180.4,195,162.8,195z"/>
<path class="st1" d="M173.2,74.6h-14.5c-0.7,0-1.3,0.2-1.9,0.5l-6.5-19.9c-2.1-11.3-10-16.8-19.7-16.8H69.1
	c-11.1,0-17.9,7.3-19.7,16.8l-6.6,20c-0.6-0.4-1.3-0.6-2-0.6H26.4c-2.2,0-4.1,1.8-4,4.1c0,0,0,0,0,0v3.5c0,2.2,1.8,4.1,4,4.1
	l5.5,0.9c-1.7,3.4-2.7,7.3-2.7,11.9l-2,23.5c0,0.7,0,1.4,0.1,2.1c-0.1,0.4-0.1,0.9-0.1,1.3v28.2c0,4,3.2,7.3,7.2,7.3c0,0,0,0,0,0h11
	c4,0,7.2-3.3,7.2-7.3c0,0,0,0,0,0v-9.1h94.6v9.1c0,4,3.2,7.3,7.2,7.3c0,0,0,0,0,0h11c4,0,7.2-3.3,7.2-7.3c0,0,0,0,0,0V126
	c0-0.4,0-0.9-0.1-1.3c0.1-0.7,0.1-1.4,0.1-2.1l-2-23.5c0-4.6-1-8.5-2.7-11.9l5.4-0.9c2.2,0,4-1.8,4-4.1v-3.5
	C177.3,76.5,175.5,74.6,173.2,74.6C173.2,74.6,173.2,74.6,173.2,74.6z M54.3,70.4l4.8-12.9l0.1-0.3c0.5-2.6,1.5-3.1,3.1-5.1h75.2
	c1.6,2.1,2.6,2.6,3,5.1l4.9,13.2l1.8,7.2c-0.4,5.3-6.7,9.4-11.9,9.4H64.4c-5.2,0-11.5-4.2-11.9-9.4L54.3,70.4z M57.7,131.8
	c-6,0-10.9-4.9-10.9-11s4.9-11,10.9-11s10.9,4.9,10.9,11S63.7,131.8,57.7,131.8z M118.7,123.7c0,1.8-1.4,3.3-3.2,3.3c0,0,0,0,0,0
	H84.8c-1.8,0-3.2-1.5-3.2-3.3v-9.2c0-1.8,1.4-3.3,3.2-3.3c0,0,0,0,0,0h30.6c1.8,0,3.3,1.5,3.2,3.3V123.7z M142.1,131.8
	c-6,0-10.9-4.9-10.9-11c0-6.1,4.9-11,10.9-11s10.9,4.9,10.9,11C153,126.9,148.1,131.8,142.1,131.8z"/>
</svg>
