<svg width="32" height="32" viewBox="0 0 32 32" fill="none" xmlns="http://www.w3.org/2000/svg">
<path d="M21.8174 24.9176C18.7569 24.9176 16.276 22.4366 16.276 19.3762C16.276 14.9615 20.1525 10.9784 21.4206 9.79346C21.4243 9.79717 21.4284 9.80047 21.4322 9.8041C21.4822 9.74929 21.5429 9.70537 21.6105 9.67508C21.6782 9.64478 21.7514 9.62877 21.8255 9.62802C21.8997 9.62728 21.9732 9.64183 22.0414 9.67077C22.1097 9.6997 22.1713 9.7424 22.2223 9.7962C23.4986 10.9751 27.3587 14.9096 27.3587 19.3762C27.3587 22.4366 24.8778 24.9176 21.8174 24.9176ZM22.1982 12.0268C22.1977 12.0273 22.197 12.0277 22.1965 12.0283C22.1537 11.9719 22.0984 11.9261 22.035 11.8946C21.9716 11.8631 21.9017 11.8467 21.8309 11.8467C21.7601 11.8467 21.6903 11.8631 21.6268 11.8946C21.5634 11.9261 21.5082 11.9719 21.4654 12.0283C21.4613 12.0245 21.457 12.0211 21.453 12.0173C20.4777 13.0954 17.8806 16.2576 17.8806 19.3605C17.8806 21.5317 19.6432 23.2918 21.8175 23.2918C23.9918 23.2918 25.7542 21.5317 25.7542 19.3605C25.7542 16.1953 23.1858 13.1001 22.1982 12.0268ZM22.345 21.9662H22.2368C21.7742 21.9662 21.3181 21.8584 20.9045 21.6513C20.4909 21.4443 20.1312 21.1437 19.854 20.7734C19.5769 20.4031 19.3898 19.9733 19.3077 19.5181C19.2256 19.0629 19.2508 18.5948 19.3811 18.1511H19.3938C19.4603 17.9766 19.5857 17.831 19.7484 17.7395C19.9111 17.6479 20.1007 17.6163 20.2842 17.6501C20.4678 17.6839 20.6337 17.7809 20.7532 17.9243C20.8726 18.0678 20.938 18.2485 20.938 18.4352C20.938 18.5089 20.8839 18.681 20.8839 18.9898C20.8839 19.3486 21.0264 19.6928 21.2801 19.9465C21.5338 20.2002 21.8779 20.3427 22.2368 20.3427C22.2732 20.3427 22.3092 20.3409 22.345 20.338V20.3427C22.5603 20.3427 22.7667 20.4282 22.919 20.5805C23.0712 20.7327 23.1567 20.9392 23.1567 21.1544C23.1567 21.3697 23.0712 21.5762 22.919 21.7284C22.7667 21.8806 22.5603 21.9662 22.345 21.9662ZM12.6584 23.1296C12.9221 23.1296 13.1851 23.1021 13.4431 23.0476V23.0526C13.4698 23.0499 13.4968 23.0485 13.5242 23.0485C13.73 23.0485 13.9281 23.1267 14.0784 23.2672C14.2287 23.4078 14.32 23.6002 14.3337 23.8055C14.3475 24.0108 14.2827 24.2137 14.1525 24.3731C14.0223 24.5324 13.8364 24.6364 13.6325 24.6638V24.6654C13.3111 24.7238 12.9851 24.7532 12.6584 24.7531C9.66971 24.7531 7.2469 22.3303 7.2469 19.3416C7.24678 18.9269 7.29422 18.5136 7.38827 18.1097C7.40037 18.0017 7.43404 17.8973 7.48729 17.8025C7.54053 17.7078 7.61226 17.6248 7.69822 17.5583C7.78418 17.4918 7.88262 17.4433 7.9877 17.4156C8.09277 17.3879 8.20234 17.3816 8.3099 17.3971C8.41746 17.4125 8.52081 17.4494 8.61383 17.5056C8.70685 17.5618 8.78763 17.6361 8.85139 17.7241C8.91515 17.8121 8.96058 17.912 8.98498 18.0178C9.00939 18.1237 9.01227 18.2334 8.99346 18.3405H9.00428C8.85067 18.9026 8.82876 19.4926 8.94026 20.0647C9.05176 20.6367 9.29366 21.1753 9.64717 21.6386C10.0007 22.1019 10.4563 22.4774 10.9785 22.736C11.5008 22.9946 12.0756 23.1293 12.6584 23.1296ZM17.3393 11.1432C17.2029 11.1432 17.0686 11.1087 16.949 11.0429C16.8294 10.9772 16.7283 10.8823 16.6552 10.7671C16.6519 10.7713 16.6483 10.7752 16.6452 10.7797C15.2556 8.7284 13.7668 7.22224 13.0667 6.5461C13.0629 6.55046 13.0586 6.5273 13.0547 6.53155C13.0097 6.46829 12.9503 6.4167 12.8814 6.38111C12.8124 6.34551 12.736 6.32694 12.6584 6.32694C12.5808 6.32694 12.5043 6.34551 12.4354 6.38111C12.3664 6.4167 12.307 6.46829 12.2621 6.53155C12.2597 6.52898 12.257 6.52668 12.2547 6.52402C10.7598 8.00082 5.62345 13.4999 5.62345 19.3416C5.62345 23.2269 8.77311 26.3765 12.6584 26.3765C14.0852 26.3787 15.4786 25.9449 16.6521 25.1332C16.7322 25.0586 16.8266 25.0011 16.9295 24.9639C17.0324 24.9268 17.1418 24.9109 17.2511 24.9172C17.3603 24.9235 17.4672 24.9518 17.5652 25.0004C17.6632 25.0491 17.7504 25.1171 17.8214 25.2003C17.8925 25.2836 17.9459 25.3803 17.9786 25.4848C18.0113 25.5892 18.0225 25.6992 18.0115 25.8081C18.0005 25.917 17.9676 26.0225 17.9148 26.1183C17.862 26.2142 17.7903 26.2983 17.7041 26.3657C17.7059 26.3683 17.7076 26.3709 17.7095 26.3734C16.2388 27.4335 14.4713 28.0026 12.6584 28C7.8765 28 4 24.1235 4 19.3416C4 12.173 10.5425 5.73167 12.253 4.1701C12.2552 4.17221 12.2576 4.17403 12.2597 4.17611C12.3081 4.12306 12.3665 4.08019 12.4316 4.05001C12.4967 4.01983 12.5672 4.00295 12.6389 4.00035C12.7106 3.99776 12.7821 4.00951 12.8493 4.03491C12.9164 4.0603 12.9778 4.09885 13.0298 4.14827C13.0321 4.14575 13.0347 4.14348 13.037 4.14091C13.8949 4.91121 16.0606 6.97762 17.9619 9.79717L17.9559 9.80437C18.0569 9.9222 18.1219 10.0665 18.1433 10.2202C18.1647 10.3739 18.1416 10.5304 18.0767 10.6714C18.0118 10.8123 17.9078 10.9317 17.7771 11.0153C17.6464 11.0989 17.4945 11.1433 17.3393 11.1432Z" fill="#fff"/>
</svg>
