<?xml version="1.0" encoding="utf-8"?>
<!-- Generator: Adobe Illustrator 21.1.0, SVG Export Plug-In . SVG Version: 6.00 Build 0)  -->
<svg version="1.1" id="Layer_1" xmlns="http://www.w3.org/2000/svg" xmlns:xlink="http://www.w3.org/1999/xlink" x="0px" y="0px"
	 viewBox="0 0 200 200" style="enable-background:new 0 0 200 200;" xml:space="preserve">
<style type="text/css">
	.st0{fill:#FFFFFF;stroke:#000000;stroke-width:8;stroke-miterlimit:10;}
	.st1{fill:#8198C8;}
	.st2{fill:#FFCFBA;}
	.st3{fill:#F4B4A7;}
	.st4{fill:#78829A;}
	.st5{fill:#FFFFFF;}
	.st6{fill:#848FC1;}
	.st7{fill:#3B433F;}
	.st8{fill:#BFBFBF;}
	.st9{fill:#323232;}
	.st10{fill:#686F79;}
	.st11{fill:#AAB1BD;}
	.st12{fill:#444B54;}
	.st13{fill:#F5BF33;}
</style>
<path class="st0" d="M163.2,195h-126c-17.6,0-32-14.4-32-32V37c0-17.6,14.4-32,32-32h126c17.6,0,32,14.4,32,32v126
	C195.2,180.6,180.8,195,163.2,195z"/>
<path class="st1" d="M145.3,127.7c-4.4-4.4-15.8-7.1-22.9-8.4c0.3,0.3,0.7,0.7,1,1l4.3,13.4l-4.7,4.5l3.7,8.1l-5.9,33.4h12.7
	l0.6-17.4l1,17.4h16.5C151.4,166.1,150.1,132.5,145.3,127.7L145.3,127.7z M76.8,138.2l-4.7-4.5l4.3-13.4c0,0,0.4-0.4,1-1
	c-7,1.3-18.4,4.1-22.7,8.4c-4.9,4.9-6.1,38.4-6.4,52h15.9l1-17.4l0.6,17.4H79l-5.9-33.4C73.1,146.3,76.8,138.2,76.8,138.2z"/>
<path class="st2" d="M86.9,113.5c0.1-0.3,0.2-0.6,0.3-0.9C87.1,112.9,87,113.2,86.9,113.5z"/>
<path class="st2" d="M94.7,120.3l5.3,9.8l5.2-9.8c0,0,4.6-2.4,6.7-6v-7.5c-2.1,3.9-6,6-13.1,6c-6.8,0-9.8-2-12.8-5.6v5
	c1.6-0.1,0.8-0.1,0.9-0.2C87.3,116.7,94.7,120.3,94.7,120.3z"/>
<path class="st3" d="M98.8,112.8c7.1,0,11-2.1,13.1-6v-0.7c-2.8,3.4-6.1,5.2-12.6,5.2c-7.1,0-9.2-2.2-13.3-6.1v2.1
	C89,110.8,92,112.8,98.8,112.8L98.8,112.8z"/>
<path class="st4" d="M64.2,179.7h1.6l-0.6-17.4L64.2,179.7z M133.6,179.7h1.6l-1-17.4L133.6,179.7z"/>
<path class="st5" d="M114.8,123.6l-4.4,7.7c0,0-0.8-9.8-5.1-11L100,130l-5.3-9.8c-4.2,1.2-5.1,11-5.1,11l-4.4-7.8
	c-0.3,3.6-0.3,7.8-0.1,12.7c0.2,5,4.2,24.1,8.7,43.5H107c4-19.4,7.6-38.5,7.8-43.5C115,131.3,115,127.2,114.8,123.6L114.8,123.6z"/>
<path class="st6" d="M85.2,123.5l-0.3-0.6c0.3-3.3,1.4-7.3,2-9.4c0.1-0.3,0.2-0.6,0.3-0.9c0.1-0.4,0.2-0.6,0.2-0.6
	c-0.2,0.1-0.3,0.1-0.5,0.2c-3.1,1.3-7.5,5.2-9.4,7.1c-0.6,0.6-1,1-1,1l-4.3,13.4l4.7,4.5l-3.7,8.1l5.9,33.4h14.8
	c-4.4-19.4-8.5-38.5-8.7-43.5C84.9,131.3,84.9,127.1,85.2,123.5L85.2,123.5z"/>
<path class="st7" d="M112.9,112.1c0,0.1,0,0.1,0.1,0.2C113,112.3,113,112.2,112.9,112.1C113,112.2,112.9,112.2,112.9,112.1z"/>
<path class="st6" d="M123,138.2l4.7-4.5l-4.3-13.4c0,0-0.4-0.4-1-1c-2-1.9-6.3-5.9-9.4-7.1c0,0.1,1.8,6,2.2,10.8l-0.4,0.7
	c0.2,3.6,0.1,7.7,0,12.6c-0.2,5-3.8,24.1-7.8,43.5h13.9l5.9-33.4L123,138.2L123,138.2z"/>
<path class="st8" d="M87.3,112c0,0-0.1,0.2-0.2,0.6c-0.1,0.3-0.2,0.6-0.3,0.9c-0.6,2.1-1.7,6.1-2,9.4l0.3,0.6l4.4,7.8
	c0,0,0.8-9.8,5.1-11C94.7,120.3,87.7,116.7,87.3,112L87.3,112z M105.4,120.3c4.2,1.2,5.1,11,5.1,11l4.4-7.7l0.4-0.7
	c-0.4-4.7-2.2-10.7-2.2-10.8c0,0,0,0,0,0v0c0,0,0,0.1,0,0.1c-0.1,0.7-0.3,1.4-0.6,2C110.5,117.9,105.4,120.3,105.4,120.3
	L105.4,120.3z"/>
<path class="st2" d="M99.9,111.3c6.6,0,9.8-1.8,12.4-5.2c1.8-2.3,3.3-5.4,5.3-9.1c1.4-2.4,2.4-5.2,3.2-8.1c0.6,0.1,1.2,0,1.9-0.6
	c2.1-1.9,4.4-10.8,2.8-12.7c-0.5-0.6-1.1-0.8-1.6-0.7c-0.1,0.7-0.2,1.5-0.3,2.2c0,0.3-0.1,0.5-0.1,0.8c-0.1,0.5-0.2,1-0.3,1.5
	c0,0.1,0,0.2-0.1,0.3c0,0,0,0.1,0,0.1c-0.3,1.2-0.5,3-0.8,3.7h-0.6c0.4-3.2,0.6-8.5-0.2-12.7c-1.5-7.1-6.7-13.2-10.6-12.6
	c-3.9,0.6-6.9,2.4-10.9,2.4c-4,0-7-1.9-10.9-2.5c-3.9-0.6-9.1,5.6-10.6,12.7c-0.9,4.1-0.6,9.5-0.3,12.6h-0.6
	c-0.5-1.6-0.8-3.6-1.2-5.2c0,0,0-0.1,0-0.1c0-0.2-0.1-0.3-0.1-0.5c-0.1-0.3-0.1-0.7-0.2-1c-0.1-0.6-0.2-1.2-0.3-1.8
	c-0.5-0.1-1.1,0-1.6,0.7c-1.5,1.9,0.7,10.8,2.8,12.7c0.7,0.6,1.3,0.7,1.9,0.6c0.8,2.9,1.9,5.6,3.2,8.1c1.8,3.2,3.2,5.9,4.7,8.1
	C89.6,109.1,92.8,111.3,99.9,111.3L99.9,111.3z"/>
<path class="st9" d="M76.3,77.8c0,0.2,0.1,0.5,0.1,0.6c0.3,1.7,0.7,3.7,1.2,5.2h0.6c-0.4-3.2-0.6-8.5,0.3-12.7
	c1.5-7.1,6.7-13.2,10.6-12.6c3.9,0.6,6.9,2.4,10.9,2.4c3.9,0,7-1.9,10.9-2.5c3.9-0.6,9.1,5.6,10.6,12.7c0.9,4.1,0.6,9.5,0.2,12.6
	h0.6c0.3-0.7,0.6-2.5,0.8-3.7c0-0.1,0-0.3,0.1-0.4c0.1-0.5,0.2-1,0.3-1.5c0-0.3,0.1-0.5,0.1-0.8c0.1-0.7,0.2-1.5,0.3-2.2
	c0.9-7,0.4-13.4-2-18.5c-3.7-8-14.4-11.4-22.1-11.5c-7.7,0-18.4,3.5-22.1,11.5c-2.4,5.1-2.9,11.5-2,18.5c0.1,0.6,0.2,1.2,0.3,1.8
	C76.1,77.1,76.2,77.5,76.3,77.8z"/>
<path class="st10" d="M129.8,63.4c0,8.2-0.1,21.9-29.2,21.9c-29.1,0-29.2-13.7-29.2-21.9c0-8.1,13.1-10,29.2-10
	C116.7,53.4,129.8,55.3,129.8,63.4z"/>
<path class="st10" d="M100.6,84.4c-28,0-29.1-12.8-29.2-21v0c0,8.2,0.1,21.9,29.2,21.9c29.1,0,29.2-13.7,29.2-21.9v0
	C129.7,71.6,128.6,84.4,100.6,84.4z"/>
<path class="st11" d="M142.5,44.8c0,8.3-18.9,15-42.1,15c-23.3,0-42.1-6.7-42.1-15c0-8.3,25.5-24.5,42.1-24.5
	C117,20.3,142.5,36.6,142.5,44.8z"/>
<path class="st11" d="M100.4,25.1c11.6,0,28.8,9.9,31.7,16.2c0.3-0.6,0.4-1.2,0.4-1.8c0-6-19.5-17.9-32.1-17.9
	c-12.6,0-32.1,11.8-32.1,17.9c0,0.6,0.2,1.2,0.4,1.8C71.6,34.9,88.9,25.1,100.4,25.1L100.4,25.1z"/>
<path class="st10" d="M122.3,26.5c7,4.2,12.4,9.3,12.4,12.7c0,6.7-15.3,12.2-34.3,12.2c-18.9,0-34.2-5.5-34.2-12.2
	c0-3.4,5.3-8.5,12.4-12.7c-11,5.5-20.2,13.3-20.2,18.3c0,8.3,18.9,15,42.1,15c23.3,0,42.1-6.7,42.1-15
	C142.5,39.9,133.3,32,122.3,26.5z"/>
<path class="st12" d="M131.9,54.6L131.9,54.6C131.9,54.6,131.9,54.6,131.9,54.6C131.8,54.5,131.8,54.5,131.9,54.6
	c-1.1-2.6-14.7-4.6-31.3-4.6c-16.6,0-30.2,2-31.2,4.5c0,0,0,0,0,0c0,0,0,0,0,0c0,0,0,0,0,0c-0.7,1.6-0.8,7.5,0,9c0,0,0,0,0,0
	c0.8,2.6,14.5,4.6,31.3,4.6c16.8,0,30.5-2,31.3-4.6c0,0,0,0,0,0C132.6,62.1,132.6,56.2,131.9,54.6L131.9,54.6z"/>
<path class="st12" d="M132.4,59.2c0-0.4,0-0.8,0-1.1h0c0-0.1,0-0.1,0-0.2c0-0.1,0-0.1,0-0.2v0c0-0.4-0.1-0.7-0.1-1.1
	c-1.9,0.5-4.3,0.9-7.1,1.3c0-0.9-0.8-1.6-1.7-1.6c-0.9,0-1.7,0.8-1.7,1.7v0.3c-5.7,0.6-12.8,1-21.2,1c-8.4,0-15.5-0.4-21.2-1V58
	c0-0.9-0.8-1.7-1.7-1.7c-0.9,0-1.6,0.7-1.7,1.6c-2.8-0.4-5.2-0.8-7.1-1.3c0,0.4-0.1,0.7-0.1,1.1v0c0,0.1,0,0.1,0,0.2
	c0,0.1,0,0.1,0,0.2c0,0.4,0,0.8,0,1.1c2,0.7,4.5,1.4,7.2,2c0,0.9,0.8,1.6,1.7,1.6c0.7,0,1.3-0.4,1.5-1c6.3,1.1,13.7,1.9,21.4,1.9
	c7.7,0,15.1-0.7,21.4-1.9c0.3,0.6,0.8,1,1.5,1c0.9,0,1.6-0.7,1.7-1.6C127.9,60.6,130.4,60,132.4,59.2L132.4,59.2z M125.2,59.8v-0.4
	c1.3-0.2,2.5-0.4,3.8-0.6C127.8,59.1,126.6,59.5,125.2,59.8z M76,59.4v0.4c-1.4-0.3-2.6-0.6-3.8-0.9C73.5,59,74.8,59.2,76,59.4z
	 M79.4,60.4v-0.6c6.4,0.7,13.9,1,21.2,1c7.4,0,14.8-0.3,21.2-1v0.6c-5.9,1.1-13.1,1.8-21.2,1.8C92.5,62.3,85.2,61.5,79.4,60.4z"/>
<path class="st12" d="M69.4,57C69.4,57,69.4,57,69.4,57C69.4,56.9,69.4,56.9,69.4,57C69.4,56.9,69.4,56.9,69.4,57
	c1.1-2.6,14.7-4.6,31.3-4.6c16.6,0,30.2,2,31.2,4.5c0,0,0,0,0,0c0,0,0,0,0,0v0c0.3,0.6,0.5,2,0.5,3.5c0.1-2.2-0.1-4.8-0.5-5.8v0
	c0,0,0,0,0,0c0,0,0,0,0,0c-1.1-2.5-14.6-4.5-31.2-4.5c-16.6,0-30.2,2-31.2,4.5c0,0,0,0,0,0c0,0,0,0,0,0c0,0,0,0,0,0
	c-0.5,1-0.6,3.6-0.5,5.8C68.9,59,69.1,57.6,69.4,57L69.4,57z"/>
<path class="st12" d="M131.9,61.2C131.9,61.2,131.9,61.2,131.9,61.2c-0.8,2.6-14.5,4.7-31.3,4.7c-16.8,0-30.5-2-31.3-4.6
	c0,0,0,0,0,0c-0.3-0.6-0.4-1.8-0.5-3.2c-0.1,2.2,0.1,4.6,0.5,5.5c0,0,0,0,0,0c0.8,2.6,14.5,4.6,31.3,4.6c16.8,0,30.5-2,31.3-4.6
	c0,0,0,0,0,0c0.4-0.9,0.6-3.4,0.5-5.5C132.3,59.4,132.2,60.6,131.9,61.2z"/>
<path class="st13" d="M132.4,58.8c0-0.5,0-1-0.1-1.5c-6.2,2.2-17.6,4.5-31.7,4.5s-25.5-2.3-31.7-4.5c0,0.5-0.1,1-0.1,1.5
	c7.1,2.5,19.2,4.5,31.8,4.5C113.2,63.2,125.3,61.2,132.4,58.8z"/>
<path class="st13" d="M132.4,57.6c0-0.5-0.1-1-0.1-1.4c-6,1.4-16.9,2.7-31.6,2.7c-14.8,0-25.6-1.3-31.6-2.7
	c-0.1,0.4-0.1,0.9-0.1,1.4c7.3,1.8,19.7,2.7,31.8,2.7C112.6,60.3,125,59.4,132.4,57.6L132.4,57.6z"/>
<path class="st13" d="M79.4,60.7c0,0.9-0.8,1.7-1.7,1.7c-0.9,0-1.7-0.7-1.7-1.7c0,0,0,0,0,0v-3.1c0-0.9,0.7-1.7,1.7-1.7c0,0,0,0,0,0
	c0.9,0,1.7,0.8,1.7,1.7V60.7z M121.8,60.7c0,0.9,0.8,1.7,1.7,1.7c0.9,0,1.7-0.8,1.7-1.7c0,0,0,0,0,0v-3.1c0-0.9-0.8-1.7-1.7-1.7
	c-0.9,0-1.7,0.8-1.7,1.7V60.7z"/>
<path class="st12" d="M111.5,37.3c0,6.1-5,11.1-11.1,11.1c-6.1,0-11.1-5-11.1-11.1c0-6.1,5-11.1,11.1-11.1
	C106.6,26.2,111.5,31.1,111.5,37.3z"/>
<path class="st13" d="M100.6,33.8l1.1,2.3l2.5,0.4l-1.8,1.8l0.4,2.5l-2.2-1.2l-2.2,1.2l0.4-2.5L97,36.5l2.5-0.4L100.6,33.8z"/>
</svg>
