<svg width="32" height="32" viewBox="0 0 32 32" fill="none" xmlns="http://www.w3.org/2000/svg">
<path d="M17.5455 19.4364V12.7273C17.5455 12.1273 17.0545 11.6364 16.4545 11.6364C15.8545 11.6364 15.3636 12.1273 15.3636 12.7273V19.4364C14.1091 19.8727 13.1818 21.0727 13.1818 22.5455C13.1818 24.3455 14.6545 25.8182 16.4545 25.8182C18.2545 25.8182 19.7273 24.3455 19.7273 22.5455C19.7273 21.1273 18.8 19.9273 17.5455 19.4364ZM19.7273 18.1818V7.27273C19.7273 5.47273 18.2545 4 16.4545 4C14.6545 4 13.1818 5.47273 13.1818 7.27273V18.1818C11.8727 19.1636 11 20.7455 11 22.5455C11 25.5455 13.4545 28 16.4545 28C19.4545 28 21.9091 25.5455 21.9091 22.5455C21.9091 20.7455 21.0364 19.1636 19.7273 18.1818ZM16.4545 26.9091C14.0545 26.9091 12.0909 24.9455 12.0909 22.5455C12.0909 20.9091 12.9636 19.5455 14.2727 18.7818V7.27273C14.2727 6.07273 15.2545 5.09091 16.4545 5.09091C17.6545 5.09091 18.6364 6.07273 18.6364 7.27273V18.7818C19.9455 19.5455 20.8182 20.9636 20.8182 22.5455C20.8182 24.9455 18.8545 26.9091 16.4545 26.9091Z" fill="#fff"/>
</svg>
