<?xml version="1.0" standalone="no"?><!DOCTYPE svg PUBLIC "-//W3C//DTD SVG 1.1//EN" "http://www.w3.org/Graphics/SVG/1.1/DTD/svg11.dtd"><svg t="1651069471679" class="icon" viewBox="0 0 1024 1024" version="1.1" xmlns="http://www.w3.org/2000/svg" p-id="3660" width="32" height="32" xmlns:xlink="http://www.w3.org/1999/xlink"><path d="M681.84852 250.311982a189.533401 189.533401 0 0 0-189.533402-189.533402 34.565362 34.565362 0 0 0-34.565362 34.565362 34.565362 34.565362 0 0 0 34.565362 34.565362 120.978767 120.978767 0 0 1 0 241.381444H48.150217a34.565362 34.565362 0 1 0 0 69.130724h444.164901a190.109491 190.109491 0 0 0 189.533402-190.10949zM747.522707 0.289197a34.565362 34.565362 0 1 0 0 69.130724 181.46815 181.46815 0 1 1 0 362.360211 34.565362 34.565362 0 0 0-34.565361 34.565362 34.565362 34.565362 0 0 0 34.565361 34.565362 250.598874 250.598874 0 1 0 0-500.621659zM730.240027 643.781019H186.411665a34.565362 34.565362 0 0 0-34.565362 34.565361 34.565362 34.565362 0 0 0 34.565362 34.565362h542.676183a120.978767 120.978767 0 0 1 0 241.957534 34.565362 34.565362 0 1 0 0 69.130724 190.109491 190.109491 0 0 0 0-380.218981z" p-id="3661" fill="#ffffff"></path></svg>